/* XPM */
static char *south[] = {
/* columns rows colors chars-per-pixel */
"16 16 55 1 ",
"  c #5B5B5B",
". c gray36",
"X c #5D5D5D",
"o c gray37",
"O c #5F5F5F",
"+ c #606060",
"@ c gray38",
"# c #626262",
"$ c #646464",
"% c #656565",
"& c gray40",
"* c #686868",
"= c DimGray",
"- c #6A6A6A",
"; c gray42",
": c #6C6C6C",
"> c #6D6D6D",
", c gray43",
"< c #6F6F6F",
"1 c gray44",
"2 c #717171",
"3 c #727272",
"4 c gray45",
"5 c #747474",
"6 c #767676",
"7 c #777777",
"8 c gray47",
"9 c #797979",
"0 c #7B7B7B",
"q c gray50",
"w c #808080",
"e c #818181",
"r c #848484",
"t c gray52",
"y c #868686",
"u c #888888",
"i c gray54",
"p c gray55",
"a c #8D8D8D",
"s c #8E8E8E",
"d c gray56",
"f c #909090",
"g c gray57",
"h c #939393",
"j c gray58",
"k c gray59",
"l c #979797",
"z c #989898",
"x c #9A9A9A",
"c c #9B9B9B",
"v c gray61",
"b c #9D9D9D",
"n c gray62",
"m c #9F9F9F",
"M c #A0A0A0",
/* pixels */
"mzMvfv21jjjxads+",
"vuuu9;;@$qq9qq0@",
"f999;&dhe;*qq%#X",
"$*q;**g9999*-rtO",
"jd&&gguuuuu$hu5X",
"h9&gq4qq994*99-@",
"wo%d,oooy5#op53@",
"X  XXXXX X@#++OX",
"j2llvvkO+bc>2vfv",
"9&h4qq<Xnu*hg999",
"uu&$9u6+l**qqu99",
"qqh;uq,O4;d$qqq9",
"999;u9=Xjgqq&999",
"qq9&94=@huuqu&;4",
"=$$#+d8#i:73,,++",
"++O..OXXXo#+OXX "
};
