/* XPM */
static char *west[] = {
/* columns rows colors chars-per-pixel */
"16 16 105 2 ",
"   c #364636",
".  c #374737",
"X  c #374837",
"o  c #374937",
"O  c #374B37",
"+  c #374C37",
"@  c #374F37",
"#  c #375037",
"$  c #385138",
"%  c #385238",
"&  c #385338",
"*  c #385538",
"=  c #385738",
"-  c #385838",
";  c #395939",
":  c #395A39",
">  c #395B39",
",  c #395D39",
"<  c #395E39",
"1  c #3A613A",
"2  c #3A623A",
"3  c #3A633A",
"4  c #3A643A",
"5  c #3A653A",
"6  c #3B653B",
"7  c #3B663B",
"8  c #3A683A",
"9  c #3B683B",
"0  c #3B6B3B",
"q  c #3B6D3B",
"w  c #3C6D3C",
"e  c #3C713C",
"r  c #3D743D",
"t  c #3D753D",
"y  c #3E773E",
"u  c #3E7A3E",
"i  c #3F7D3F",
"p  c #3F7E3F",
"a  c gray27",
"s  c #4B4B4B",
"d  c gray31",
"f  c #515151",
"g  c gray32",
"h  c #555555",
"j  c #646464",
"k  c #656565",
"l  c #676767",
"z  c #686868",
"x  c DimGray",
"c  c #6C6C6C",
"v  c gray44",
"b  c #717171",
"n  c #747474",
"m  c gray46",
"M  c #777777",
"N  c #797979",
"B  c #7C7C7C",
"V  c #7E7E7E",
"C  c gray50",
"Z  c #418541",
"A  c #418741",
"S  c #428942",
"D  c #428A42",
"F  c #428C42",
"G  c #438D43",
"H  c #438E43",
"J  c #449144",
"K  c #808080",
"L  c #818181",
"P  c #838383",
"I  c #848484",
"U  c gray52",
"Y  c #868686",
"T  c gray53",
"R  c #888888",
"E  c #898989",
"W  c gray54",
"Q  c #8B8B8B",
"!  c #8E8E8E",
"~  c gray56",
"^  c #909090",
"/  c gray57",
"(  c #929292",
")  c #939393",
"_  c gray60",
"`  c #9A9A9A",
"'  c #9B9B9B",
"]  c gray61",
"[  c #9F9F9F",
"{  c #A0A0A0",
"}  c gray63",
"|  c gray64",
" . c #A5A5A5",
".. c gray65",
"X. c #A7A7A7",
"o. c gray68",
"O. c #AFAFAF",
"+. c gray69",
"@. c #B2B2B2",
"#. c gray70",
"$. c #B4B4B4",
"%. c gray71",
"&. c #BCBCBC",
"*. c #C0C0C0",
"=. c gray78",
/* pixels */
"o.o.o.| ( L 6 2 z o.o.o.P z +.! ",
"o.o.v L s 2 J J 2 L R L ~ $ m ` ",
"1 L L O 2 J o.y d . Q L @ 2 2 U ",
"q - + 2 $.9 ( L g 2 @ h 2 ..#.2 ",
"O.o.z 2 o.Y Y h 2 S ' Z , C X.z ",
"M Y C 2 e W L # G *.B u c l O $ ",
"L L t 2 8 @ g 6 5 i { t M L r j ",
"L L + < G o.2 , 3 : f R L g 5 &.",
"C   2 %.J t 0 o. .r 4 ; & a *.o.",
"Q z o.+.u $ o.b %.p ^ 2 x &.L L ",
"z D B L L d o.) L t T g 4 z _ U ",
"2 2 A C n g L P / L @ , H 2 2 g ",
"o.o.@ @ @ @ 7 L = @ o.] t L 2 2 ",
"$.V w #.F @.2 g 7 =.} L / L E f ",
"N E * [ I B K 2 2 2 L ~ W ( h @ ",
"B N M > o X @ 2 J P k 3 = ; % c "
};
